<svg xmlns="http://www.w3.org/2000/svg" viewBox="0 0 48 48" fill="none">
  <!-- Diamond shape with Stacks-inspired horizontal layers -->
  <!-- Full diamond outline -->
  <path d="M24 4L6 20L24 44L42 20L24 4Z" fill="#f7931a" opacity="0.15"/>

  <!-- Top facet - bright -->
  <path d="M24 4L6 20L42 20L24 4Z" fill="#f7931a" opacity="0.95"/>

  <!-- Stacks-style horizontal bands inside diamond -->
  <!-- Upper band -->
  <path d="M10 18L24 6L38 18Z" fill="#f7931a" opacity="1"/>
  <!-- Middle band (the Stacks signature bar) -->
  <path d="M8 21H40L38 19H10L8 21Z" fill="#fff" opacity="0.25"/>
  <!-- Lower left -->
  <path d="M9 22L24 40L17 28L9 22Z" fill="#f7931a" opacity="0.6"/>
  <!-- Lower right -->
  <path d="M39 22L24 40L31 28L39 22Z" fill="#f7931a" opacity="0.8"/>
  <!-- Center lower -->
  <path d="M17 28L24 40L31 28L24 24L17 28Z" fill="#f7931a" opacity="0.7"/>

  <!-- Stacks cross lines -->
  <line x1="6" y1="20" x2="42" y2="20" stroke="#fff" stroke-width="1.2" opacity="0.3"/>
  <line x1="24" y1="4" x2="24" y2="44" stroke="#fff" stroke-width="0.8" opacity="0.15"/>
</svg>
